<svg width="1200" height="1200" viewBox="0 0 1200 1200" fill="none" xmlns="http://www.w3.org/2000/svg">
<circle cx="600" cy="600" r="600" fill="#800000"/>
<path d="M177.102 483.273H237.784L301.875 639.636H304.602L368.693 483.273H429.375V716H381.648V564.523H379.716L319.489 714.864H286.989L226.761 563.955H224.83V716H177.102V483.273ZM509.46 541.455L541.506 602.477L574.347 541.455H624.006L573.438 628.727L625.369 716H575.938L541.506 655.659L507.642 716H457.642L509.46 628.727L459.46 541.455H509.46ZM653.665 716V483.273H810.483V523.841H702.869V579.295H802.415V619.864H702.869V675.432H810.938V716H653.665ZM840.739 523.841V483.273H1031.88V523.841H960.625V716H911.989V523.841H840.739Z" fill="white"/>
</svg>
